{"title":"[ShepardTDS] Mononoke Hime Dual Audio [720p 8-bit x265 HEVC]","uid":13274326,"size":1404067890,"categoryP":"video","categoryS":"tv_shows","magnet":"?xt=urn:btih:419fa8d38ad4f0150779ddd062c04c64e5f7e199&amp;dn=%5BShepardTDS%5D+Mononoke+Hime+Dual+Audio+%5B720p+8-bit+x265+HEVC%5D+&amp;tr=udp%3A%2F%2Ftracker.leechers-paradise.org%3A6969&amp;tr=udp%3A%2F%2Fzer0day.ch%3A1337&amp;tr=udp%3A%2F%2Fopen.demonii.com%3A1337&amp;tr=udp%3A%2F%2Ftracker.coppersurfer.tk%3A6969&amp;tr=udp%3A%2F%2Fexodus.desync.com%3A6969","seeders":0,"leechers":0,"uploader":"ShepardTDS","files":2,"time":1453425663,"description":"http://extraimago.com/images/2016/01/22/91jW6fdD-xL._SL1500_.jpg\r\n\r\nConstant Quality encoding.\r\nVariable Bit rates\r\nBlu-Ray Source\r\n \nhttp://extraimago.com/images/2016/01/22/sample1.jpg\r\n \nhttp://extraimago.com/images/2016/01/22/sample2.jpg\r\n\r\nGeneral\r\n\r\nFormat : Matroska\r\nFile size : 1.31 GiB\r\nDuration : 2h 13mn\r\nOverall bit rate : 1 404 Kbps\r\nEncoded date : UTC 2016-01-15 22:54:31\r\nWriting application : mkvmerge v8.5.2 ('Crosses') 32bit\r\nWriting library : libebml v1.3.3 + libmatroska v1.4.4\r\n\r\nVideo\r\nID : 1\r\nFormat : V_MPEGH/ISO/HEVC\r\nCodec ID : V_MPEGH/ISO/HEVC\r\nDuration : 2h 13mn\r\nBit rate : 992 Kbps\r\nWidth : 1 280 pixels\r\nHeight : 696 pixels\r\nDisplay aspect ratio : 16:9\r\nFrame rate : 23.976 fps\r\nBits/(Pixel*Frame) : 0.046\r\nStream size : 946 MiB (71%)\r\n\r\nAudio #1\r\nID : 2\r\nFormat : AC-3\r\nFormat/Info : Audio Coding 3\r\nMode extension : CM (complete main)\r\nCodec ID : A_AC3\r\nDuration : 2h 13mn\r\nBit rate mode : Constant\r\nBit rate : 192 Kbps\r\nChannel(s) : 2 channels\r\nChannel positions : Front: L R\r\nSampling rate : 48.0 KHz\r\nBit depth : 16 bits\r\nCompression mode : Lossy\r\nStream size : 183 MiB (14%)\r\nLanguage : English\r\n\r\nAudio #2\r\nID : 3\r\nFormat : AC-3\r\nFormat/Info : Audio Coding 3\r\nMode extension : CM (complete main)\r\nCodec ID : A_AC3\r\nDuration : 2h 13mn\r\nBit rate mode : Constant\r\nBit rate : 192 Kbps\r\nChannel(s) : 2 channels\r\nChannel positions : Front: L R\r\nSampling rate : 48.0 KHz\r\nBit depth : 16 bits\r\nCompression mode : Lossy\r\nStream size : 183 MiB (14%)\r\nLanguage : Japanese\r\n\r\nText #1\r\nID : 4\r\nFormat : ASS\r\nCodec ID : S_TEXT/ASS\r\nCodec ID/Info : Advanced Sub Station Alpha\r\nCompression mode : Lossless\r\nLanguage : English\r\n\r\nText #2\r\nID : 5\r\nFormat : UTF-8\r\nCodec ID : S_TEXT/UTF8\r\nCodec ID/Info : UTF-8 Plain Text\r\nLanguage : English\r\n\r\nMenu\r\n00:00:00.000 : en:00:00:00.000\r\n00:01:09.194 : en:00:01:09.194\r\n00:07:31.034 : en:00:07:31.034\r\n00:12:27.246 : en:00:12:27.246\r\n00:18:47.376 : en:00:18:47.376\r\n00:23:12.933 : en:00:23:12.933\r\n00:28:48.852 : en:00:28:48.852\r\n00:32:54.347 : en:00:32:54.347\r\n00:38:44.781 : en:00:38:44.781\r\n00:44:17.113 : en:00:44:17.113\r\n00:49:39.184 : en:00:49:39.184\r\n00:54:40.694 : en:00:54:40.694\r\n00:59:35.864 : en:00:59:35.864\r\n01:05:06.319 : en:01:05:06.319\r\n01:07:44.352 : en:01:07:44.352\r\n01:12:41.983 : en:01:12:41.983\r\n01:17:24.431 : en:01:17:24.431\r\n01:22:26.566 : en:01:22:26.566\r\n01:27:24.281 : en:01:27:24.281\r\n01:33:21.429 : en:01:33:21.429\r\n01:38:19.143 : en:01:38:19.143\r\n01:43:08.307 : en:01:43:08.307\r\n01:48:14.488 : en:01:48:14.488\r\n01:52:27.240 : en:01:52:27.240\r\n01:57:30.210 : en:01:57:30.210\r\n02:02:37.225 : en:02:02:37.225\r\n02:05:21.305 : en:02:05:21.305\r\n02:08:31.203 : en:02:08:31.203","torrent":{"xt":"urn:btih:419fa8d38ad4f0150779ddd062c04c64e5f7e199","amp;dn":"%5BShepardTDS%5D+Mononoke+Hime+Dual+Audio+%5B720p+8-bit+x265+HEVC%5D+","amp;tr":["udp%3A%2F%2Ftracker.leechers-paradise.org%3A6969","udp%3A%2F%2Fzer0day.ch%3A1337","udp%3A%2F%2Fopen.demonii.com%3A1337","udp%3A%2F%2Ftracker.coppersurfer.tk%3A6969","udp%3A%2F%2Fexodus.desync.com%3A6969"],"infoHash":"419fa8d38ad4f0150779ddd062c04c64e5f7e199","infoHashBuffer":{"type":"Buffer","data":[65,159,168,211,138,212,240,21,7,121,221,208,98,192,76,100,229,247,225,153]},"announce":[],"urlList":[]}}